<svg xmlns="http://www.w3.org/2000/svg" style="display:none" aria-hidden="true">
  <symbol id="ak-cylinder" viewBox="0 0 24 24" fill="currentColor"><path d="M4 7.5A2.5 2.5 0 0 1 6.5 5h11A2.5 2.5 0 0 1 20 7.5v9A2.5 2.5 0 0 1 17.5 19h-11A2.5 2.5 0 0 1 4 16.5v-9Zm2.5-.5a.5.5 0 0 0-.5.5v9a.5.5 0 0 0 .5.5h11a.5.5 0 0 0 .5-.5v-9a.5.5 0 0 0-.5-.5h-11ZM8 9h1.2v6H8V9Zm3.4 0H12.6v6h-1.2V9Zm3.4 0H16v6h-1.2V9Z"/></symbol>
  <symbol id="ak-displacement" viewBox="0 0 24 24" fill="none" stroke="currentColor" stroke-width="1.5" stroke-linecap="round"><circle cx="12" cy="12" r="8"/><path d="M12 8v4l2.5 2.5"/><path d="M8 4.5V3M16 4.5V3M8 19.5v1.5M16 19.5v1.5"/></symbol>
  <symbol id="ak-turbo" viewBox="0 0 24 24" fill="none" stroke="currentColor" stroke-width="1.5" stroke-linecap="round"><circle cx="11" cy="13" r="3.5"/><path d="M18 6c2 2 2.5 4.5 1 7"/><path d="M14 10c3-1 5.5-.5 7 1"/><rect x="17" y="3" width="4" height="7" rx="1"/></symbol>
  <symbol id="ak-na" viewBox="0 0 24 24" fill="none" stroke="currentColor" stroke-width="1.5" stroke-linecap="round"><path d="M4 12c2-4 4-6 8-6s6 2 8 6"/><path d="M6 15h12"/><path d="M9 18h6"/></symbol>
  <symbol id="ak-hybrid" viewBox="0 0 24 24" fill="none" stroke="currentColor" stroke-width="1.5" stroke-linecap="round"><rect x="3" y="7" width="14" height="10" rx="2"/><path d="M17 11h2l2 3v3h-4v-6Z"/><path d="M7 11h4M7 14h3"/></symbol>
  <symbol id="ak-phev" viewBox="0 0 24 24" fill="none" stroke="currentColor" stroke-width="1.5" stroke-linecap="round"><path d="M7 4v4M5 6h4"/><rect x="3" y="9" width="12" height="9" rx="2"/><path d="M15 12h2l3 3v3h-5v-6Z"/></symbol>
  <symbol id="ak-ev" viewBox="0 0 24 24" fill="none" stroke="currentColor" stroke-width="1.5" stroke-linecap="round"><path d="M13 2 3 14h7l-1 8 10-12h-7l1-8Z"/></symbol>
  <symbol id="ak-transmission" viewBox="0 0 24 24" fill="currentColor"><path d="M22 11.5a3.5 3.5 0 1 1-7 0 3.5 3.5 0 0 1 7 0ZM8.5 22a3.5 3.5 0 1 1 0-7 3.5 3.5 0 0 1 0 7ZM8.5 8.5a3.5 3.5 0 1 1 0-7 3.5 3.5 0 0 1 0 7ZM15 12H8.5M8.5 15.5V8.5"/></symbol>
  <symbol id="ak-body" viewBox="0 0 24 24" fill="currentColor"><path d="M5 11.5 7 8h10l2 3.5v5.5a1 1 0 0 1-1 1h-1.2a1.8 1.8 0 0 0-3.6 0H10.8a1.8 1.8 0 0 0-3.6 0H6a1 1 0 0 1-1-1v-5.5ZM8.5 10.5h7"/></symbol>
  <symbol id="ak-fuel" viewBox="0 0 24 24" fill="none" stroke="currentColor" stroke-width="1.5" stroke-linecap="round"><path d="M4 20V6a2 2 0 0 1 2-2h8a2 2 0 0 1 2 2v14"/><path d="M16 10h2l2 4v6h-4v-10Z"/><path d="M8 10h4M8 14h4"/></symbol>
  <symbol id="ak-power" viewBox="0 0 24 24" fill="none" stroke="currentColor" stroke-width="1.5" stroke-linecap="round"><path d="M12 3v3"/><path d="M12 18v3"/><path d="M3 12h3"/><path d="M18 12h3"/><circle cx="12" cy="12" r="5"/><path d="m9.5 12 1.8 1.8L15 10.1"/></symbol>
  <symbol id="ak-torque" viewBox="0 0 24 24" fill="none" stroke="currentColor" stroke-width="1.5" stroke-linecap="round"><path d="M12 6a6 6 0 1 0 6 6"/><path d="M18 4v4h-4"/><path d="M8 12H4M20 12h-4"/></symbol>
  <symbol id="ak-drivetrain" viewBox="0 0 24 24" fill="none" stroke="currentColor" stroke-width="1.5" stroke-linecap="round"><circle cx="7" cy="17" r="2.5"/><circle cx="17" cy="17" r="2.5"/><path d="M9.5 17h5M12 6v7"/><path d="M10 6h4"/></symbol>
  <symbol id="ak-speed" viewBox="0 0 24 24" fill="none" stroke="currentColor" stroke-width="1.5" stroke-linecap="round"><path d="M12 4a8 8 0 1 0 8 8"/><path d="M12 12 16 8"/><path d="M16 4h2v2"/></symbol>
  <symbol id="ak-wheel" viewBox="0 0 24 24" fill="none" stroke="currentColor" stroke-width="1.5"><circle cx="12" cy="12" r="7"/><circle cx="12" cy="12" r="2"/><path d="M12 5v3M12 16v3M5 12h3M16 12h3"/></symbol>
  <symbol id="ak-suspension" viewBox="0 0 24 24" fill="none" stroke="currentColor" stroke-width="1.5" stroke-linecap="round"><path d="M6 18V8l3-3 3 3v10"/><path d="M12 5v13"/><path d="M12 8h6l2 3v7"/></symbol>
</svg>
